<svg xmlns="http://www.w3.org/2000/svg" width="1200" height="675" viewBox="0 0 1200 675">
  <defs>
    <linearGradient id="sky" x1="0" y1="0" x2="0" y2="1">
      <stop offset="0" stop-color="#06101f"/>
      <stop offset="0.55" stop-color="#102a4c"/>
      <stop offset="1" stop-color="#0b3b2e"/>
    </linearGradient>
    <radialGradient id="glow" cx="50%" cy="28%" r="55%">
      <stop offset="0" stop-color="#facc15" stop-opacity="0.75"/>
      <stop offset="0.45" stop-color="#38bdf8" stop-opacity="0.25"/>
      <stop offset="1" stop-color="#06101f" stop-opacity="0"/>
    </radialGradient>
  </defs>
  <rect width="1200" height="675" fill="url(#sky)"/>
  <rect width="1200" height="675" fill="url(#glow)"/>
  <ellipse cx="600" cy="610" rx="500" ry="130" fill="#15803d"/>
  <ellipse cx="600" cy="610" rx="390" ry="85" fill="none" stroke="#f8fafc" stroke-width="6" opacity="0.65"/>
  <line x1="600" y1="530" x2="600" y2="670" stroke="#f8fafc" stroke-width="5" opacity="0.55"/>
  <circle cx="600" cy="600" r="48" fill="none" stroke="#f8fafc" stroke-width="5" opacity="0.55"/>
  <g opacity="0.9">
    <rect x="90" y="230" width="1020" height="110" rx="18" fill="#0f172a" opacity="0.75"/>
    <text x="600" y="285" font-family="Arial, sans-serif" font-size="48" font-weight="700" fill="#facc15" text-anchor="middle">World Cup Dream Manager</text>
    <text x="600" y="325" font-family="Arial, sans-serif" font-size="24" fill="#e2e8f0" text-anchor="middle">Choose any country. Choose women or men. Code the dream.</text>
  </g>
  <g>
      <rect x="170" y="80" width="86" height="54" rx="4" fill="#fff"/>
      <rect x="174" y="84" width="26" height="46" fill="#ef4444"/>
      <rect x="200" y="84" width="26" height="46" fill="#f8fafc"/>
      <rect x="226" y="84" width="26" height="46" fill="#0ea5e9"/>
      <text x="213" y="156" font-family="Arial" font-size="18" fill="#f8fafc" text-anchor="middle">Malaysia</text>
    </g><g>
      <rect x="330" y="80" width="86" height="54" rx="4" fill="#fff"/>
      <rect x="334" y="84" width="26" height="46" fill="#f8fafc"/>
      <rect x="360" y="84" width="26" height="46" fill="#ef4444"/>
      <rect x="386" y="84" width="26" height="46" fill="#f8fafc"/>
      <text x="373" y="156" font-family="Arial" font-size="18" fill="#f8fafc" text-anchor="middle">Malta</text>
    </g><g>
      <rect x="490" y="80" width="86" height="54" rx="4" fill="#fff"/>
      <rect x="494" y="84" width="26" height="46" fill="#16a34a"/>
      <rect x="520" y="84" width="26" height="46" fill="#facc15"/>
      <rect x="546" y="84" width="26" height="46" fill="#2563eb"/>
      <text x="533" y="156" font-family="Arial" font-size="18" fill="#f8fafc" text-anchor="middle">Brazil</text>
    </g><g>
      <rect x="650" y="80" width="86" height="54" rx="4" fill="#fff"/>
      <rect x="654" y="84" width="26" height="46" fill="#f8fafc"/>
      <rect x="680" y="84" width="26" height="46" fill="#ef4444"/>
      <rect x="706" y="84" width="26" height="46" fill="#f8fafc"/>
      <text x="693" y="156" font-family="Arial" font-size="18" fill="#f8fafc" text-anchor="middle">Japan</text>
    </g><g>
      <rect x="810" y="80" width="86" height="54" rx="4" fill="#fff"/>
      <rect x="814" y="84" width="26" height="46" fill="#111827"/>
      <rect x="840" y="84" width="26" height="46" fill="#f8fafc"/>
      <rect x="866" y="84" width="26" height="46" fill="#ef4444"/>
      <text x="853" y="156" font-family="Arial" font-size="18" fill="#f8fafc" text-anchor="middle">NZ</text>
    </g>
</svg>